<svg xmlns="http://www.w3.org/2000/svg" width="15.042" height="13.942" viewBox="0 0 15.042 13.942"><g transform="translate(0.15 -19.138)"><path d="M60.661,62.61a.847.847,0,0,0-.863-.828H59.17a.214.214,0,0,0-.214.214v2.363a.214.214,0,1,0,.428,0v-.885l1.192,1.355-.666.586a.214.214,0,1,0,.283.321l.666-.586.586.666a.214.214,0,0,0,.321-.283l-.586-.666.666-.586a.214.214,0,1,0-.283-.321l-.666.586-.982-1.116A.841.841,0,0,0,60.661,62.61Zm-.863.4-.411,0c0-.406,0-.3,0-.8H59.8a.4.4,0,1,1,0,.8Z" transform="translate(-57.275 -41.282)" fill="#5c2d90" stroke="#5c2d90" stroke-width="0.3"/><path d="M67.052,279.752a.214.214,0,0,0-.214-.214H59.171a.214.214,0,1,0,0,.428h7.668A.214.214,0,0,0,67.052,279.752Z" transform="translate(-57.276 -253.729)" fill="#5c2d90" stroke="#5c2d90" stroke-width="0.3"/><path d="M59.171,325.543a.214.214,0,1,0,0,.428H61.7a.214.214,0,1,0,0-.428Z" transform="translate(-57.276 -298.422)" fill="#5c2d90" stroke="#5c2d90" stroke-width="0.3"/><path d="M.214,26.039a.214.214,0,0,0,.214-.214v-5.1a1.007,1.007,0,0,1,1.006-1.006H8.848v2.032A1.355,1.355,0,0,0,10.2,23.1h2.032v1.02a.214.214,0,0,0,.428,0V22.887a.216.216,0,0,0-.063-.151h0L9.213,19.351a.222.222,0,0,0-.151-.063H1.434A1.436,1.436,0,0,0,0,20.722v5.1a.214.214,0,0,0,.214.214ZM10.2,22.673a.927.927,0,0,1-.926-.926v-1.73l2.655,2.655Z" transform="translate(0 0)" fill="#5c2d90" stroke="#5c2d90" stroke-width="0.3"/><path d="M1.434,216.591h6.6a2.175,2.175,0,0,0,3.645,2.077l2.28-2.28h0a2.176,2.176,0,0,0-1.3-3.7v-1.194a.214.214,0,0,0-.428,0v1.19h0a2.176,2.176,0,0,0-1.343.628l-1.14,1.14c-.962,1-1.294,1.193-1.551,1.712H1.434a1.007,1.007,0,0,1-1.006-1.006V213.2a.214.214,0,1,0-.428,0v1.96a1.436,1.436,0,0,0,1.434,1.434Zm9.947,1.775a1.748,1.748,0,1,1-2.472-2.472L9.9,214.9l2.472,2.472Zm2.28-2.28-.989.989L10.2,214.6c1.061-1.06,1.1-1.135,1.411-1.3a1.748,1.748,0,0,1,2.05,2.784Z" transform="translate(0 -186.516)" fill="#5c2d90" stroke="#5c2d90" stroke-width="0.3"/></g></svg>